# xmcd
#
# Track frame offsets:
#	150
#	15407
#	26969
#	40200
#	53373
#	65505
#	74573
#	86283
#	99684
#	113721
#	128857
#	143173
#	156914
#	169661
#	180017
#	193197
#	207403
#	219301
#	229724
#	239945
#
# Disc length: 3377 seconds
#
# Revision: 1
# Processed by: cddbd v1.4b42PL1 Copyright (c) Steve Scherf et al.
# Submitted via: audiograbber 1.80.04
#
DISCID=180d2f14
DTITLE=Marlene Dietrich - Divas - The Gold Collection - Disc 1
DYEAR=1900
DGENRE=
TTITLE0=Lili Marlene
TTITLE1=Lola
TTITLE2=Johnny
TTITLE3=Falling in love again
TTITLE4=You've got that look
TTITLE5=The boys in the backroom
TTITLE6=I've been in love before
TTITLE7=You do something to me
TTITLE8=You go to my head
TTITLE9=Illusions
TTITLE10=Black Market
TTITLE11=Symphonie
TTITLE12=Look me over closely
TTITLE13=Lazy afternoon
TTITLE14=Such trying times
TTITLE15=If he swing by the string
TTITLE16=La vie en rose
TTITLE17=Another spring, another love
TTITLE18=Near you
TTITLE19=Kisses sweeter than wine
EXTD=
EXTT0=
EXTT1=
EXTT2=
EXTT3=
EXTT4=
EXTT5=
EXTT6=
EXTT7=
EXTT8=
EXTT9=
EXTT10=
EXTT11=
EXTT12=
EXTT13=
EXTT14=
EXTT15=
EXTT16=
EXTT17=
EXTT18=
EXTT19=
PLAYORDER=
